# xmcd CD database file
#
# Track frame offsets:
#	150
#	12965
#	26727
#	44690
#	63600
#	78292
#	91333
#	104559
#	114798
#	124280
#
# Disc length: 1799 seconds
#
# Revision: 0
# Processed by: cddbd v1.5.2PL0 Copyright (c) Steve Scherf et al.
# Submitted via: CDex 1.70beta2
#
DISCID=8107050a
DTITLE=Tammy Lee - Take Me With You
DYEAR=1999
DGENRE=Country
TTITLE0=Pages and Pages
TTITLE1=The Time of My Life
TTITLE2=Dreams Never Die
TTITLE3=Take Me With You
TTITLE4=Mama Got the Last Good Man
TTITLE5=A Different Time and Place
TTITLE6=It Was You
TTITLE7=When I'm With You
TTITLE8=Can't Stop
TTITLE9=Take a Heart
EXTD=YEAR: 1999
EXTT0=
EXTT1=
EXTT2=
EXTT3=
EXTT4=
EXTT5=
EXTT6=
EXTT7=
EXTT8=
EXTT9=
PLAYORDER=
